<svg width="946" height="1000" viewBox="0 0 946 1000" fill="none" xmlns="http://www.w3.org/2000/svg">
<path d="M505.374 996.447C485.736 998.792 465.749 1000 445.479 1000C409.808 1000 375.009 996.263 341.452 989.162L568.707 579.546H574.389L505.374 996.447Z" fill="white"/>
<path d="M210.418 941.41C161.437 915.272 117.316 881.22 79.7656 840.961L124.104 576.704H129.786L210.418 941.41Z" fill="white"/>
<path d="M445.479 0C721.622 0 945.479 223.858 945.479 500C945.479 678.764 851.664 835.615 710.583 924.01L818.707 272.728H572.968L335.752 684.659H327.229L226.377 272.728H0C82.7597 110.833 251.176 0 445.479 0Z" fill="white"/>
</svg>
